<svg width="241" height="203" viewBox="0 0 241 203" fill="none" xmlns="http://www.w3.org/2000/svg">
<path fill-rule="evenodd" clip-rule="evenodd" d="M131.256 0.204479C150.837 -2.12545 165.654 15.9757 178.535 28.0327C189.232 38.0447 188.262 53.4609 198.897 63.5156C209.995 74.0085 237.073 73.2987 240.646 86.7574C244.245 100.311 219.298 108.717 214.429 122.013C209.961 134.213 223.475 149.52 213.944 159.68C204.502 169.745 184.016 165.766 169.287 170.133C156.027 174.064 144.35 179.923 131.256 184.194C112.399 190.344 92.3391 209.136 74.7035 200.983C56.3009 192.474 72.2096 166.197 61.0143 151.718C51.6565 139.615 28.1857 139.153 17.9155 127.536C6.47238 114.592 -0.709674 98.6208 0.0557005 82.7645C0.85423 66.2213 4.67127 45.709 22.282 37.0758C41.8748 27.4708 69.1234 45.6924 90.2804 38.5339C109.858 31.9096 110.237 2.70542 131.256 0.204479Z" fill="#E6F6F0"/>
</svg>
