<svg width="641" height="523" viewBox="0 0 641 523" fill="none" xmlns="http://www.w3.org/2000/svg">
<path fill-rule="evenodd" clip-rule="evenodd" d="M329.596 0.0168067C382.262 -0.888201 422.323 34.9712 468.962 55.6377C526.004 80.9138 606.867 84.6077 632.81 134.376C658.695 184.033 617.302 239.734 590.665 289.107C566.824 333.295 527.935 366.714 488.421 402.004C438.344 446.727 401.953 514.69 329.596 522.265C256.829 529.884 197.121 476.615 139.305 438.555C83.5101 401.825 17.1024 365.616 2.79191 307.132C-11.1662 250.088 29.8307 194.418 67.6446 145.69C97.9833 106.595 148.055 86.0717 194.294 60.3575C237.957 36.0761 277.317 0.915172 329.596 0.0168067Z" fill="#E6F6F0"/>
</svg>
